<svg width="1200" height="630" xmlns="http://www.w3.org/2000/svg">
  <defs>
    <linearGradient id="bg-gradient" x1="0%" y1="0%" x2="100%" y2="100%">
      <stop offset="0%" style="stop-color:#0a0f1a"/>
      <stop offset="50%" style="stop-color:#1a1f2e"/>
      <stop offset="100%" style="stop-color:#0a0f1a"/>
    </linearGradient>
    <linearGradient id="accent-gradient" x1="0%" y1="0%" x2="100%" y2="0%">
      <stop offset="0%" style="stop-color:#6effc0"/>
      <stop offset="100%" style="stop-color:#3de6a0"/>
    </linearGradient>
    <linearGradient id="text-gradient" x1="0%" y1="0%" x2="100%" y2="0%">
      <stop offset="0%" style="stop-color:#ffffff"/>
      <stop offset="100%" style="stop-color:#e2e8f0"/>
    </linearGradient>
  </defs>
  
  <!-- Background -->
  <rect width="1200" height="630" fill="url(#bg-gradient)"/>
  
  <!-- Grid pattern -->
  <g opacity="0.1">
    <line x1="0" y1="0" x2="1200" y2="630" stroke="#6effc0" stroke-width="1"/>
    <line x1="1200" y1="0" x2="0" y2="630" stroke="#6effc0" stroke-width="1"/>
    <line x1="600" y1="0" x2="600" y2="630" stroke="#6effc0" stroke-width="1"/>
    <line x1="0" y1="315" x2="1200" y2="315" stroke="#6effc0" stroke-width="1"/>
  </g>
  
  <!-- Decorative circles -->
  <circle cx="150" cy="150" r="100" fill="none" stroke="#6effc0" stroke-width="2" opacity="0.2"/>
  <circle cx="1050" cy="480" r="120" fill="none" stroke="#3de6a0" stroke-width="2" opacity="0.15"/>
  <circle cx="900" cy="100" r="60" fill="none" stroke="#6effc0" stroke-width="1" opacity="0.2"/>
  
  <!-- Brain icon representation -->
  <g transform="translate(100, 200)">
    <circle cx="80" cy="115" r="70" fill="none" stroke="#6effc0" stroke-width="3" opacity="0.8"/>
    <path d="M50 100 Q80 60 110 100 Q140 140 110 170 Q80 200 50 170 Q20 140 50 100" fill="none" stroke="#3de6a0" stroke-width="2" opacity="0.6"/>
    <circle cx="60" cy="100" r="8" fill="#6effc0" opacity="0.8"/>
    <circle cx="100" cy="100" r="8" fill="#6effc0" opacity="0.8"/>
    <circle cx="80" cy="140" r="8" fill="#3de6a0" opacity="0.8"/>
    <line x1="60" y1="100" x2="80" y2="140" stroke="#6effc0" stroke-width="2" opacity="0.5"/>
    <line x1="100" y1="100" x2="80" y2="140" stroke="#6effc0" stroke-width="2" opacity="0.5"/>
    <line x1="60" y1="100" x2="100" y2="100" stroke="#3de6a0" stroke-width="2" opacity="0.5"/>
  </g>
  
  <!-- Chart representation -->
  <g transform="translate(800, 180)">
    <rect x="0" y="0" width="300" height="200" rx="10" fill="#1a1f2e" stroke="#6effc0" stroke-width="1" opacity="0.5"/>
    <polyline points="20,150 60,120 100,140 140,80 180,100 220,40 280,70" fill="none" stroke="#6effc0" stroke-width="3"/>
    <circle cx="280" cy="70" r="6" fill="#6effc0"/>
    <text x="150" y="180" fill="#94a3b8" font-family="Arial, sans-serif" font-size="12" text-anchor="middle">Live Chart Analysis</text>
  </g>
  
  <!-- Main Title -->
  <text x="350" y="280" fill="#ffffff" font-family="Arial, sans-serif" font-size="72" font-weight="bold">Zikalyze</text>
  
  <!-- Subtitle -->
  <text x="350" y="340" fill="#94a3b8" font-family="Arial, sans-serif" font-size="28">AI-Powered Crypto Trading Analysis</text>
  
  <!-- Features -->
  <g transform="translate(350, 380)">
    <rect x="0" y="0" width="140" height="36" rx="18" fill="#6effc0" opacity="0.2"/>
    <text x="70" y="24" fill="#6effc0" font-family="Arial, sans-serif" font-size="14" text-anchor="middle" font-weight="bold">🧠 Smart Money</text>
  </g>
  <g transform="translate(510, 380)">
    <rect x="0" y="0" width="120" height="36" rx="18" fill="#3de6a0" opacity="0.2"/>
    <text x="60" y="24" fill="#3de6a0" font-family="Arial, sans-serif" font-size="14" text-anchor="middle" font-weight="bold">📊 ICT Analysis</text>
  </g>
  <g transform="translate(650, 380)">
    <rect x="0" y="0" width="110" height="36" rx="18" fill="#6effc0" opacity="0.2"/>
    <text x="55" y="24" fill="#6effc0" font-family="Arial, sans-serif" font-size="14" text-anchor="middle" font-weight="bold">🔔 Real-time</text>
  </g>
  
  <!-- Accuracy badge -->
  <g transform="translate(350, 440)">
    <text x="0" y="0" fill="#ffffff" font-family="Arial, sans-serif" font-size="48" font-weight="bold">80%</text>
    <text x="120" y="0" fill="#94a3b8" font-family="Arial, sans-serif" font-size="18">Accuracy Rate</text>
  </g>
  
  <!-- Stats -->
  <g transform="translate(350, 500)">
    <text x="0" y="0" fill="#6effc0" font-family="Arial, sans-serif" font-size="16" font-weight="bold">25K+ Users</text>
    <text x="120" y="0" fill="#94a3b8" font-family="Arial, sans-serif" font-size="16">•</text>
    <text x="140" y="0" fill="#3de6a0" font-family="Arial, sans-serif" font-size="16" font-weight="bold">50K+ Predictions/Day</text>
    <text x="330" y="0" fill="#94a3b8" font-family="Arial, sans-serif" font-size="16">•</text>
    <text x="350" y="0" fill="#6effc0" font-family="Arial, sans-serif" font-size="16" font-weight="bold">100+ Markets</text>
  </g>
  
  <!-- Bottom gradient line -->
  <rect x="0" y="620" width="1200" height="10" fill="url(#accent-gradient)"/>
  
  <!-- Corner accent -->
  <polygon points="0,0 150,0 0,150" fill="#6effc0" opacity="0.1"/>
  <polygon points="1200,630 1200,480 1050,630" fill="#3de6a0" opacity="0.1"/>
</svg>
